<svg width="33" height="39" viewBox="0 0 33 39" fill="none" xmlns="http://www.w3.org/2000/svg">
<path d="M5.91053 0.696C6.74253 0.696 7.40653 0.776 7.90253 0.935999C8.39853 1.096 8.90253 1.328 9.41453 1.632C9.59053 1.728 9.74253 1.808 9.87053 1.872C10.0145 1.936 10.1345 1.968 10.2305 1.968C10.3745 1.968 10.4865 1.888 10.5665 1.728C10.6465 1.552 10.7105 1.28 10.7585 0.912H11.3105C11.2305 1.984 11.1905 3.808 11.1905 6.384H10.6385C10.5745 5.52 10.3745 4.696 10.0385 3.912C9.71853 3.128 9.25453 2.496 8.64653 2.016C8.05453 1.52 7.35853 1.272 6.55853 1.272C5.77453 1.272 5.13453 1.496 4.63853 1.944C4.15853 2.376 3.91853 2.968 3.91853 3.72C3.91853 4.28 4.03853 4.768 4.27853 5.184C4.51853 5.6 4.85453 5.984 5.28653 6.336C5.71853 6.672 6.38253 7.136 7.27853 7.728L8.04653 8.256C8.99053 8.88 9.73453 9.424 10.2785 9.888C10.8225 10.352 11.2625 10.896 11.5985 11.52C11.9505 12.128 12.1265 12.84 12.1265 13.656C12.1265 14.68 11.8625 15.544 11.3345 16.248C10.8065 16.936 10.0865 17.456 9.17453 17.808C8.27853 18.16 7.27853 18.336 6.17453 18.336C5.27853 18.336 4.53453 18.256 3.94253 18.096C3.35053 17.936 2.80653 17.72 2.31053 17.448C1.95853 17.224 1.68653 17.112 1.49453 17.112C1.35053 17.112 1.23853 17.2 1.15853 17.376C1.07853 17.536 1.01453 17.8 0.966532 18.168H0.414532C0.478532 17.16 0.510532 15 0.510532 11.688H1.06253C1.17453 13.48 1.57453 14.936 2.26253 16.056C2.95053 17.16 4.00653 17.712 5.43053 17.712C6.29453 17.712 7.00653 17.48 7.56653 17.016C8.12653 16.552 8.40653 15.888 8.40653 15.024C8.40653 14.128 8.11853 13.36 7.54253 12.72C6.96653 12.08 6.05453 11.36 4.80653 10.56C3.84653 9.936 3.07853 9.392 2.50253 8.928C1.92653 8.464 1.45453 7.92 1.08653 7.296C0.718532 6.656 0.534532 5.92 0.534532 5.088C0.534532 4.128 0.774532 3.32 1.25453 2.664C1.75053 1.992 2.40653 1.496 3.22253 1.176C4.03853 0.855999 4.93453 0.696 5.91053 0.696ZM32.1182 1.488C31.5742 1.52 31.1822 1.584 30.9422 1.68C30.7022 1.776 30.5342 1.96 30.4382 2.232C30.3582 2.504 30.3182 2.944 30.3182 3.552V15.456C30.3182 16.064 30.3582 16.504 30.4382 16.776C30.5342 17.048 30.7022 17.232 30.9422 17.328C31.1822 17.424 31.5742 17.488 32.1182 17.52V18C31.3342 17.952 30.1182 17.928 28.4702 17.928C26.8542 17.928 25.5982 17.952 24.7022 18V17.52C25.2302 17.488 25.6142 17.424 25.8542 17.328C26.1102 17.232 26.2782 17.048 26.3582 16.776C26.4542 16.504 26.5022 16.064 26.5022 15.456V9.696H20.1422V15.456C20.1422 16.064 20.1822 16.504 20.2622 16.776C20.3582 17.048 20.5262 17.232 20.7662 17.328C21.0062 17.424 21.3982 17.488 21.9422 17.52V18C21.0782 17.952 19.8702 17.928 18.3182 17.928C16.6062 17.928 15.3422 17.952 14.5262 18V17.52C15.0542 17.488 15.4382 17.424 15.6782 17.328C15.9342 17.232 16.1022 17.048 16.1822 16.776C16.2782 16.504 16.3262 16.064 16.3262 15.456V3.552C16.3262 2.944 16.2782 2.504 16.1822 2.232C16.1022 1.96 15.9342 1.776 15.6782 1.68C15.4382 1.584 15.0542 1.52 14.5262 1.488V1.008C15.3422 1.056 16.6062 1.08 18.3182 1.08C19.8702 1.08 21.0782 1.056 21.9422 1.008V1.488C21.3982 1.52 21.0062 1.584 20.7662 1.68C20.5262 1.776 20.3582 1.96 20.2622 2.232C20.1822 2.504 20.1422 2.944 20.1422 3.552V9.216H26.5022V3.552C26.5022 2.944 26.4542 2.504 26.3582 2.232C26.2782 1.96 26.1102 1.776 25.8542 1.68C25.6142 1.584 25.2302 1.52 24.7022 1.488V1.008C25.5982 1.056 26.8542 1.08 28.4702 1.08C30.1182 1.08 31.3342 1.056 32.1182 1.008V1.488Z" fill="#344F7D"/>
<path d="M13.7539 34.352C13.7539 35.824 13.8099 37.04 13.9219 38C12.8339 37.952 11.0019 37.928 8.42594 37.928C4.93794 37.928 2.32994 37.952 0.601938 38V37.52C1.12994 37.488 1.51394 37.424 1.75394 37.328C2.00994 37.232 2.17794 37.048 2.25794 36.776C2.35394 36.504 2.40194 36.064 2.40194 35.456V23.552C2.40194 22.944 2.35394 22.504 2.25794 22.232C2.17794 21.96 2.00994 21.776 1.75394 21.68C1.51394 21.584 1.12994 21.52 0.601938 21.488V21.008C2.32994 21.056 4.93794 21.08 8.42594 21.08C10.7779 21.08 12.4499 21.056 13.4419 21.008C13.3299 22.336 13.2739 23.52 13.2739 24.56C13.2739 25.264 13.2979 25.808 13.3459 26.192H12.7939C12.5539 24.48 12.1219 23.28 11.4979 22.592C10.8739 21.904 9.99394 21.56 8.85794 21.56H7.87394C7.37794 21.56 7.01794 21.6 6.79394 21.68C6.56994 21.76 6.41794 21.92 6.33794 22.16C6.25794 22.384 6.21794 22.752 6.21794 23.264V29.216H6.98594C7.83394 29.216 8.47394 28.904 8.90594 28.28C9.35394 27.656 9.66594 26.912 9.84194 26.048H10.3939C10.3459 26.72 10.3219 27.472 10.3219 28.304V29.456C10.3219 30.272 10.3699 31.408 10.4659 32.864H9.91394C9.57794 30.752 8.60194 29.696 6.98594 29.696H6.21794V35.744C6.21794 36.256 6.25794 36.632 6.33794 36.872C6.41794 37.096 6.56994 37.248 6.79394 37.328C7.01794 37.408 7.37794 37.448 7.87394 37.448H9.04994C10.1859 37.448 11.0979 37.064 11.7859 36.296C12.4899 35.512 12.9859 34.192 13.2739 32.336H13.8259C13.7779 32.864 13.7539 33.536 13.7539 34.352ZM32.6849 36.944C32.2529 37.44 31.7889 37.792 31.2929 38C30.7969 38.224 30.1969 38.336 29.4929 38.336C28.5649 38.336 27.8289 38.144 27.2849 37.76C26.7569 37.36 26.4129 36.688 26.2529 35.744L25.8209 33.344C25.6129 32.176 25.3569 31.32 25.0529 30.776C24.7649 30.216 24.2769 29.936 23.5889 29.936H22.0289V35.456C22.0289 36.064 22.0689 36.504 22.1489 36.776C22.2449 37.048 22.4129 37.232 22.6529 37.328C22.8929 37.424 23.2849 37.488 23.8289 37.52V38C22.9649 37.952 21.7569 37.928 20.2049 37.928C18.4929 37.928 17.2289 37.952 16.4129 38V37.52C16.9409 37.488 17.3249 37.424 17.5649 37.328C17.8209 37.232 17.9889 37.048 18.0689 36.776C18.1649 36.504 18.2129 36.064 18.2129 35.456V23.552C18.2129 22.944 18.1649 22.504 18.0689 22.232C17.9889 21.96 17.8209 21.776 17.5649 21.68C17.3249 21.584 16.9409 21.52 16.4129 21.488V21.008C17.2289 21.056 18.4449 21.08 20.0609 21.08L22.7249 21.056C23.0449 21.04 23.4129 21.032 23.8289 21.032C26.0369 21.032 27.6929 21.392 28.7969 22.112C29.9169 22.832 30.4769 23.864 30.4769 25.208C30.4769 26.344 30.0609 27.344 29.2289 28.208C28.3969 29.072 27.0209 29.616 25.1009 29.84C26.5409 29.968 27.6129 30.28 28.3169 30.776C29.0209 31.272 29.4769 32.016 29.6849 33.008L30.2369 35.48C30.3649 36.12 30.5089 36.568 30.6689 36.824C30.8449 37.08 31.0849 37.208 31.3889 37.208C31.5809 37.192 31.7409 37.144 31.8689 37.064C32.0129 36.984 32.1729 36.848 32.3489 36.656L32.6849 36.944ZM23.5169 21.488C23.0849 21.488 22.7649 21.544 22.5569 21.656C22.3649 21.768 22.2289 21.968 22.1489 22.256C22.0689 22.544 22.0289 22.976 22.0289 23.552V29.456H23.0609C24.3729 29.456 25.2689 29.112 25.7489 28.424C26.2449 27.72 26.4929 26.736 26.4929 25.472C26.4929 24.16 26.2609 23.168 25.7969 22.496C25.3329 21.824 24.5729 21.488 23.5169 21.488Z" fill="#858585"/>
</svg>
